<svg xmlns="http://www.w3.org/2000/svg" xmlns:xlink="http://www.w3.org/1999/xlink" width="1080" zoomAndPan="magnify" viewBox="0 0 810 809.999993" height="1080" preserveAspectRatio="xMidYMid meet" version="1.0"><defs><clipPath id="9b41685c52"><path d="M 247 255.148438 L 563 255.148438 L 563 570.148438 L 247 570.148438 Z M 247 255.148438 " clip-rule="nonzero"/></clipPath></defs><path fill="#f69272" d="M 404.78125 259.523438 C 402.273438 259.523438 399.769531 259.585938 397.265625 259.707031 C 394.761719 259.832031 392.261719 260.015625 389.769531 260.261719 C 387.273438 260.507812 384.785156 260.8125 382.308594 261.179688 C 379.828125 261.546875 377.359375 261.976562 374.898438 262.464844 C 372.441406 262.953125 369.996094 263.503906 367.566406 264.113281 C 365.132812 264.722656 362.71875 265.390625 360.320312 266.117188 C 357.921875 266.84375 355.542969 267.628906 353.179688 268.472656 C 350.820312 269.320312 348.484375 270.21875 346.167969 271.179688 C 343.851562 272.136719 341.5625 273.152344 339.292969 274.226562 C 337.027344 275.296875 334.789062 276.421875 332.578125 277.605469 C 330.367188 278.785156 328.1875 280.019531 326.039062 281.308594 C 323.886719 282.597656 321.773438 283.9375 319.6875 285.328125 C 317.601562 286.722656 315.554688 288.164062 313.539062 289.65625 C 311.527344 291.148438 309.550781 292.691406 307.613281 294.28125 C 305.675781 295.871094 303.777344 297.507812 301.921875 299.191406 C 300.066406 300.875 298.25 302.601562 296.476562 304.371094 C 294.703125 306.144531 292.976562 307.960938 291.292969 309.816406 C 289.609375 311.671875 287.972656 313.570312 286.382812 315.507812 C 284.792969 317.445312 283.25 319.417969 281.757812 321.433594 C 280.265625 323.445312 278.820312 325.492188 277.429688 327.578125 C 276.035156 329.660156 274.695312 331.777344 273.40625 333.925781 C 272.117188 336.074219 270.882812 338.253906 269.703125 340.464844 C 268.519531 342.675781 267.394531 344.914062 266.320312 347.179688 C 265.25 349.445312 264.234375 351.734375 263.273438 354.050781 C 262.316406 356.363281 261.414062 358.703125 260.570312 361.0625 C 259.726562 363.421875 258.9375 365.800781 258.210938 368.199219 C 257.484375 370.597656 256.816406 373.011719 256.207031 375.441406 C 255.597656 377.871094 255.046875 380.316406 254.558594 382.773438 C 254.070312 385.234375 253.640625 387.703125 253.273438 390.179688 C 252.90625 392.660156 252.597656 395.144531 252.355469 397.640625 C 252.109375 400.132812 251.921875 402.632812 251.800781 405.136719 C 251.679688 407.636719 251.617188 410.140625 251.617188 412.648438 C 251.617188 415.15625 251.679688 417.660156 251.800781 420.160156 C 251.921875 422.664062 252.109375 425.164062 252.355469 427.65625 C 252.597656 430.152344 252.90625 432.636719 253.273438 435.117188 C 253.640625 437.59375 254.070312 440.0625 254.558594 442.523438 C 255.046875 444.980469 255.597656 447.421875 256.207031 449.855469 C 256.816406 452.285156 257.484375 454.699219 258.210938 457.097656 C 258.9375 459.496094 259.726562 461.875 260.570312 464.234375 C 261.414062 466.59375 262.316406 468.929688 263.273438 471.246094 C 264.234375 473.5625 265.25 475.851562 266.320312 478.117188 C 267.394531 480.382812 268.519531 482.621094 269.703125 484.832031 C 270.882812 487.042969 272.117188 489.222656 273.40625 491.371094 C 274.695312 493.519531 276.035156 495.636719 277.429688 497.71875 C 278.820312 499.804688 280.265625 501.851562 281.757812 503.863281 C 283.25 505.878906 284.792969 507.851562 286.382812 509.789062 C 287.972656 511.726562 289.609375 513.625 291.292969 515.480469 C 292.976562 517.335938 294.703125 519.152344 296.476562 520.925781 C 298.25 522.695312 300.066406 524.421875 301.921875 526.105469 C 303.777344 527.789062 305.675781 529.425781 307.613281 531.015625 C 309.550781 532.605469 311.527344 534.148438 313.539062 535.640625 C 315.554688 537.132812 317.601562 538.574219 319.6875 539.96875 C 321.773438 541.359375 323.886719 542.699219 326.039062 543.988281 C 328.1875 545.277344 330.367188 546.511719 332.578125 547.691406 C 334.789062 548.875 337.027344 550 339.292969 551.070312 C 341.5625 552.144531 343.851562 553.160156 346.167969 554.117188 C 348.484375 555.078125 350.820312 555.976562 353.179688 556.824219 C 355.542969 557.667969 357.921875 558.453125 360.320312 559.179688 C 362.71875 559.90625 365.132812 560.574219 367.566406 561.183594 C 369.996094 561.792969 372.441406 562.34375 374.898438 562.832031 C 377.359375 563.320312 379.828125 563.75 382.308594 564.117188 C 384.785156 564.484375 387.273438 564.789062 389.769531 565.035156 C 392.261719 565.28125 394.761719 565.464844 397.265625 565.589844 C 399.769531 565.710938 402.273438 565.773438 404.78125 565.773438 C 407.289062 565.773438 409.792969 565.710938 412.296875 565.589844 C 414.800781 565.464844 417.300781 565.28125 419.792969 565.035156 C 422.289062 564.789062 424.777344 564.484375 427.253906 564.117188 C 429.734375 563.75 432.203125 563.320312 434.664062 562.832031 C 437.121094 562.34375 439.566406 561.792969 441.996094 561.183594 C 444.429688 560.574219 446.84375 559.90625 449.242188 559.179688 C 451.640625 558.453125 454.019531 557.667969 456.378906 556.824219 C 458.742188 555.976562 461.078125 555.078125 463.394531 554.117188 C 465.710938 553.160156 468 552.144531 470.265625 551.070312 C 472.535156 550 474.773438 548.875 476.984375 547.691406 C 479.191406 546.511719 481.375 545.277344 483.523438 543.988281 C 485.671875 542.699219 487.789062 541.359375 489.875 539.96875 C 491.960938 538.574219 494.007812 537.132812 496.019531 535.640625 C 498.035156 534.148438 500.011719 532.605469 501.949219 531.015625 C 503.886719 529.425781 505.78125 527.789062 507.640625 526.105469 C 509.496094 524.421875 511.3125 522.695312 513.085938 520.925781 C 514.859375 519.152344 516.585938 517.335938 518.269531 515.480469 C 519.953125 513.625 521.589844 511.726562 523.179688 509.789062 C 524.769531 507.851562 526.3125 505.878906 527.804688 503.863281 C 529.296875 501.851562 530.742188 499.804688 532.132812 497.71875 C 533.527344 495.636719 534.867188 493.519531 536.15625 491.371094 C 537.445312 489.222656 538.679688 487.042969 539.859375 484.832031 C 541.042969 482.621094 542.167969 480.382812 543.242188 478.117188 C 544.3125 475.851562 545.328125 473.5625 546.285156 471.246094 C 547.246094 468.929688 548.148438 466.59375 548.992188 464.234375 C 549.835938 461.875 550.625 459.496094 551.351562 457.097656 C 552.078125 454.699219 552.746094 452.285156 553.355469 449.855469 C 553.964844 447.421875 554.515625 444.980469 555.003906 442.523438 C 555.492188 440.0625 555.921875 437.59375 556.289062 435.117188 C 556.65625 432.636719 556.960938 430.152344 557.207031 427.65625 C 557.453125 425.164062 557.636719 422.664062 557.761719 420.160156 C 557.882812 417.660156 557.945312 415.15625 557.945312 412.648438 C 557.945312 410.140625 557.882812 407.636719 557.761719 405.136719 C 557.636719 402.632812 557.453125 400.132812 557.207031 397.640625 C 556.960938 395.144531 556.65625 392.660156 556.289062 390.179688 C 555.921875 387.703125 555.492188 385.234375 555.003906 382.773438 C 554.515625 380.316406 553.964844 377.871094 553.355469 375.441406 C 552.746094 373.011719 552.078125 370.597656 551.351562 368.199219 C 550.625 365.800781 549.835938 363.421875 548.992188 361.0625 C 548.148438 358.703125 547.246094 356.363281 546.285156 354.050781 C 545.328125 351.734375 544.3125 349.445312 543.242188 347.179688 C 542.167969 344.914062 541.042969 342.675781 539.859375 340.464844 C 538.679688 338.253906 537.445312 336.074219 536.15625 333.925781 C 534.867188 331.777344 533.527344 329.660156 532.132812 327.578125 C 530.742188 325.492188 529.296875 323.445312 527.804688 321.433594 C 526.3125 319.417969 524.769531 317.445312 523.179688 315.507812 C 521.589844 313.570312 519.953125 311.671875 518.269531 309.816406 C 516.585938 307.960938 514.859375 306.144531 513.085938 304.371094 C 511.3125 302.601562 509.496094 300.875 507.640625 299.191406 C 505.78125 297.507812 503.886719 295.871094 501.949219 294.28125 C 500.011719 292.691406 498.035156 291.148438 496.019531 289.65625 C 494.007812 288.164062 491.960938 286.722656 489.875 285.328125 C 487.789062 283.9375 485.671875 282.597656 483.523438 281.308594 C 481.375 280.019531 479.191406 278.785156 476.984375 277.605469 C 474.773438 276.421875 472.535156 275.296875 470.265625 274.226562 C 468 273.152344 465.710938 272.136719 463.394531 271.179688 C 461.078125 270.21875 458.742188 269.320312 456.378906 268.472656 C 454.019531 267.628906 451.640625 266.84375 449.242188 266.117188 C 446.84375 265.390625 444.429688 264.722656 441.996094 264.113281 C 439.566406 263.503906 437.121094 262.953125 434.664062 262.464844 C 432.203125 261.976562 429.734375 261.546875 427.253906 261.179688 C 424.777344 260.8125 422.289062 260.507812 419.792969 260.261719 C 417.300781 260.015625 414.800781 259.832031 412.296875 259.707031 C 409.792969 259.585938 407.289062 259.523438 404.78125 259.523438 Z M 404.78125 259.523438 " fill-opacity="1" fill-rule="nonzero"/><path fill="#fefdef" d="M 466.046875 401.710938 L 415.722656 401.710938 L 415.722656 347.023438 C 415.722656 340.980469 410.824219 336.085938 404.78125 336.085938 C 398.738281 336.085938 393.839844 340.980469 393.839844 347.023438 L 393.839844 401.710938 L 343.515625 401.710938 C 337.472656 401.710938 332.574219 406.605469 332.574219 412.648438 C 332.574219 418.691406 337.472656 423.585938 343.515625 423.585938 L 393.839844 423.585938 L 393.839844 478.273438 C 393.839844 484.316406 398.738281 489.210938 404.78125 489.210938 C 410.824219 489.210938 415.722656 484.316406 415.722656 478.273438 L 415.722656 423.585938 L 466.046875 423.585938 C 472.089844 423.585938 476.988281 418.691406 476.988281 412.648438 C 476.988281 406.605469 472.089844 401.710938 466.046875 401.710938 Z M 466.046875 401.710938 " fill-opacity="1" fill-rule="nonzero"/><g clip-path="url(#9b41685c52)"><path fill="#1f212b" d="M 404.78125 255.148438 C 317.910156 255.148438 247.238281 325.800781 247.238281 412.648438 C 247.238281 499.496094 317.910156 570.148438 404.78125 570.148438 C 491.652344 570.148438 562.320312 499.496094 562.320312 412.648438 C 562.320312 325.800781 491.652344 255.148438 404.78125 255.148438 Z M 404.78125 561.398438 C 322.738281 561.398438 255.992188 494.671875 255.992188 412.648438 C 255.992188 330.625 322.738281 263.898438 404.78125 263.898438 C 486.824219 263.898438 553.570312 330.625 553.570312 412.648438 C 553.570312 494.671875 486.824219 561.398438 404.78125 561.398438 Z M 404.78125 561.398438 " fill-opacity="1" fill-rule="nonzero"/></g><path fill="#1f212b" d="M 462.886719 294.921875 C 465.792969 296.355469 468.691406 297.925781 471.496094 299.585938 C 471.84375 299.789062 472.226562 299.886719 472.605469 299.886719 C 473.355469 299.886719 474.082031 299.503906 474.492188 298.8125 C 475.105469 297.769531 474.765625 296.429688 473.722656 295.8125 C 470.820312 294.097656 467.828125 292.480469 464.824219 290.992188 C 463.742188 290.460938 462.433594 290.902344 461.894531 291.984375 C 461.359375 293.074219 461.804688 294.386719 462.886719 294.921875 Z M 484.410156 308.289062 C 484.808594 308.589844 485.269531 308.738281 485.734375 308.738281 C 486.390625 308.738281 487.042969 308.445312 487.472656 307.878906 C 488.207031 306.921875 488.023438 305.546875 487.066406 304.8125 C 485.609375 303.699219 484.121094 302.613281 482.613281 301.554688 C 481.625 300.859375 480.261719 301.101562 479.566406 302.09375 C 478.875 303.082031 479.109375 304.445312 480.101562 305.140625 C 481.558594 306.15625 483 307.207031 484.410156 308.289062 Z M 484.410156 308.289062 " fill-opacity="1" fill-rule="nonzero"/><path fill="#1f212b" d="M 495.960938 312.230469 C 495.074219 311.417969 493.683594 311.484375 492.871094 312.378906 C 492.058594 313.269531 492.128906 314.65625 493.023438 315.464844 C 520.375 340.304688 536.066406 375.726562 536.066406 412.648438 C 536.066406 485.019531 477.171875 543.898438 404.78125 543.898438 C 332.390625 543.898438 273.496094 485.019531 273.496094 412.648438 C 273.496094 340.277344 332.390625 281.398438 404.78125 281.398438 C 420.3125 281.398438 435.519531 284.085938 449.976562 289.382812 C 451.113281 289.8125 452.371094 289.214844 452.78125 288.082031 C 453.199219 286.949219 452.617188 285.695312 451.484375 285.277344 C 436.539062 279.800781 420.828125 277.023438 404.78125 277.023438 C 329.980469 277.023438 269.121094 337.867188 269.121094 412.648438 C 269.121094 487.429688 329.980469 548.273438 404.78125 548.273438 C 479.582031 548.273438 540.441406 487.429688 540.441406 412.648438 C 540.441406 374.492188 524.226562 337.894531 495.960938 312.230469 Z M 495.960938 312.230469 " fill-opacity="1" fill-rule="nonzero"/><path fill="#1f212b" d="M 417.910156 399.523438 L 417.910156 347.023438 C 417.910156 339.789062 412.019531 333.898438 404.78125 333.898438 C 397.542969 333.898438 391.652344 339.789062 391.652344 347.023438 L 391.652344 399.523438 L 343.515625 399.523438 C 336.277344 399.523438 330.386719 405.414062 330.386719 412.648438 C 330.386719 419.882812 336.277344 425.773438 343.515625 425.773438 L 391.652344 425.773438 L 391.652344 478.273438 C 391.652344 485.507812 397.542969 491.398438 404.78125 491.398438 C 412.019531 491.398438 417.910156 485.507812 417.910156 478.273438 L 417.910156 425.773438 L 466.046875 425.773438 C 473.285156 425.773438 479.175781 419.882812 479.175781 412.648438 C 479.175781 405.414062 473.285156 399.523438 466.046875 399.523438 Z M 474.800781 412.648438 C 474.800781 417.472656 470.875 421.398438 466.046875 421.398438 L 415.722656 421.398438 C 414.515625 421.398438 413.535156 422.378906 413.535156 423.585938 L 413.535156 478.273438 C 413.535156 483.097656 409.609375 487.023438 404.78125 487.023438 C 399.953125 487.023438 396.027344 483.097656 396.027344 478.273438 L 396.027344 423.585938 C 396.027344 422.378906 395.046875 421.398438 393.839844 421.398438 L 343.515625 421.398438 C 338.6875 421.398438 334.761719 417.472656 334.761719 412.648438 C 334.761719 407.824219 338.6875 403.898438 343.515625 403.898438 L 393.839844 403.898438 C 395.046875 403.898438 396.027344 402.917969 396.027344 401.710938 L 396.027344 347.023438 C 396.027344 342.199219 399.953125 338.273438 404.78125 338.273438 C 409.609375 338.273438 413.535156 342.199219 413.535156 347.023438 L 413.535156 401.710938 C 413.535156 402.917969 414.515625 403.898438 415.722656 403.898438 L 466.046875 403.898438 C 470.875 403.898438 474.800781 407.824219 474.800781 412.648438 Z M 474.800781 412.648438 " fill-opacity="1" fill-rule="nonzero"/></svg>